<svg t="1689353809140" class="icon" viewBox="0 0 1024 1024" version="1.1" xmlns="http://www.w3.org/2000/svg" p-id="1668"
     width="16" height="16">
    <path d="M609.5 627.6c-10.3-20.6-20.5-60.2-30.7-118.9l80.8-207.3h-77.3l-33.9 104.4h-1.9c-13.2-35.8-33.1-63.8-59.8-84-26.7-20.2-57.5-30.3-92.6-30.3-60.2 0-108 21.7-143.4 65.1-35.4 43.5-53.1 99.3-53.1 167.7 0 60.5 15.4 110.3 46.1 149.6 30.7 39.2 71.8 58.8 123.1 58.8 72.4 0 128.5-41.3 168.4-123.8h1.5c15.5 78.5 45.1 117.7 88.8 117.7 11.4 0 25.4-2 41.9-6.1v-64.8c-4.6 1.8-10.7 2.7-18.3 2.7-16.2 0-29.3-10.3-39.6-30.8z m-98.5-101c-30.7 94.8-75 142.1-133 142.1-32.3 0-57.7-14.3-76.4-43.1-18.7-28.7-28-63.9-28-105.5 0-46.7 11-86.4 33.1-118.9s52.1-48.8 89.9-48.8c58.2 0 98.3 52 120.4 155.9l-6 18.3zM775.4 634.8c-14 0-25.7 4.7-35.1 14.1-9.4 9.4-14.1 21-14.1 34.7 0 13.2 4.6 24.6 13.9 34.1S761 732 775 732c14.5 0 26.4-4.8 35.8-14.3 9.4-9.5 14.1-20.9 14.1-34.1 0-13.5-4.7-25-14.1-34.5-9.4-9.5-21.2-14.3-35.4-14.3zM775.4 292.6c-13.5 0-25 4.6-34.7 13.7-9.7 9.1-14.5 20.6-14.5 34.3 0 13.5 4.7 24.9 14.1 34.3 9.4 9.4 21 14.1 34.7 14.1 14.5 0 26.4-4.7 35.8-14.1 9.4-9.4 14.1-20.8 14.1-34.3s-4.8-24.8-14.5-34.1c-9.6-9.2-21.3-13.9-35-13.9z"
          p-id="1669" fill="#1296db"></path>
    <path d="M926.2 270.6c-19.9 0-36.1-16.2-36.1-36.1V83.7c0-6.2-5.2-11.5-11.5-11.5H143.7c-6.2 0-11.5 5.2-11.5 11.5v150.8c0 20-16.2 36.1-36.1 36.1S60 254.5 60 234.5V83.7C60 37.5 97.6 0 143.7 0h734.9c46.1 0 83.7 37.5 83.7 83.7v150.8c0 20-16.2 36.1-36.1 36.1z"
          p-id="1670" fill="#1296db"></path>
    <path d="M878.6 1024H143.7c-46.1 0-83.7-37.5-83.7-83.7V732.7c0-20 16.2-36.1 36.1-36.1s36.1 16.2 36.1 36.1v207.6c0 6.2 5.2 11.5 11.5 11.5h734.9c6.2 0 11.5-5.2 11.5-11.5V732.7c0-20 16.2-36.1 36.1-36.1s36.1 16.2 36.1 36.1v207.6c0 46.2-37.5 83.7-83.7 83.7z"
          p-id="1671" fill="#1296db"></path>
</svg>